<?xml version="1.0" standalone="no"?>
<!DOCTYPE svg PUBLIC "-//W3C//DTD SVG 20010904//EN"
 "http://www.w3.org/TR/2001/REC-SVG-20010904/DTD/svg10.dtd">
<svg version="1.0" xmlns="http://www.w3.org/2000/svg"
 width="512.000000pt" height="512.000000pt" viewBox="0 0 512.000000 512.000000"
 preserveAspectRatio="xMidYMid meet">
<metadata>
Created by potrace 1.14, written by Peter Selinger 2001-2017
</metadata>
<g transform="translate(0.000000,512.000000) scale(0.100000,-0.100000)"
fill="#000000" stroke="none">
<path d="M1340 3235 l0 -865 -190 0 -190 0 0 -570 0 -570 1600 0 1600 0 0 570
0 570 -197 2 -198 3 -3 863 -2 862 -1210 0 -1210 0 0 -865z m2328 -27 l-3
-793 -1112 -3 -1113 -2 0 795 0 795 1115 0 1115 0 -2 -792z m392 -1403 l0
-465 -1500 0 -1500 0 0 465 0 465 1500 0 1500 0 0 -465z"/>
<path d="M1610 3230 l0 -600 925 0 925 0 0 600 0 600 -925 0 -925 0 0 -600z
m768 243 l-3 -88 -77 -3 -78 -3 0 91 0 90 80 0 81 0 -3 -87z m472 -3 l0 -90
-80 0 -80 0 0 90 0 90 80 0 80 0 0 -90z m80 -460 l0 -60 -390 0 -390 0 0 60 0
60 390 0 390 0 0 -60z"/>
<path d="M1160 1805 l0 -355 70 0 70 0 0 355 0 355 -70 0 -70 0 0 -355z"/>
<path d="M1400 1805 l0 -355 70 0 70 0 0 355 0 355 -70 0 -70 0 0 -355z"/>
<path d="M1630 1805 l0 -355 70 0 70 0 0 355 0 355 -70 0 -70 0 0 -355z"/>
<path d="M3073 2131 c-46 -29 -66 -74 -60 -135 4 -41 10 -55 40 -83 20 -18 48
-35 62 -39 96 -24 195 75 171 171 -4 14 -21 42 -40 62 -28 31 -40 37 -87 40
-42 3 -61 0 -86 -16z m101 -97 c16 -16 9 -45 -14 -59 -15 -9 -50 14 -50 33 0
38 37 53 64 26z"/>
<path d="M3573 2131 c-104 -65 -74 -233 45 -257 47 -9 106 11 136 46 49 59 43
140 -14 195 -40 38 -120 46 -167 16z m91 -87 c22 -8 20 -51 -2 -63 -37 -20
-70 27 -40 57 14 14 20 14 42 6z"/>
</g>
</svg>
